<svg xmlns="http://www.w3.org/2000/svg" viewBox="0 0 477.867 477.867" fill="#c3c2c7"><path d="M238.933,187.733c-47.128,0-85.333,38.205-85.333,85.333s38.205,85.333,85.333,85.333s85.333-38.205,85.333-85.333C324.21,225.962,286.038,187.79,238.933,187.733z M238.933,324.267c-28.277,0-51.2-22.923-51.2-51.2s22.923-51.2,51.2-51.2s51.2,22.923,51.2,51.2S267.21,324.267,238.933,324.267z"/><path d="M426.667,102.4h-72.004l-13.841-55.347c-1.902-7.593-8.727-12.919-16.555-12.919H153.6c-7.828,0-14.652,5.326-16.555,12.919L123.204,102.4H51.2C22.923,102.4,0,125.323,0,153.6v238.933c0,28.277,22.923,51.2,51.2,51.2h375.467c28.277,0,51.2-22.923,51.2-51.2V153.6C477.867,125.323,454.944,102.4,426.667,102.4z M443.733,392.533c0,9.426-7.641,17.067-17.067,17.067H51.2c-9.426,0-17.067-7.641-17.067-17.067V153.6c0-9.426,7.641-17.067,17.067-17.067h85.333c7.828,0,14.652-5.326,16.555-12.92l13.841-55.347h144.009l13.841,55.347c1.902,7.594,8.727,12.919,16.555,12.92h85.333c9.426,0,17.067,7.641,17.067,17.067V392.533z"/></svg>
