<svg xmlns="http://www.w3.org/2000/svg" viewBox="0 0 461.322 461.322" fill="#c3c2c7"><path d="M270.629,227.265c-30.302,0-54.857-24.555-54.857-54.857s24.555-54.857,54.857-54.857  s54.857,24.555,54.857,54.857S300.931,227.265,270.629,227.265z M270.629,148.898c-13.061,0-23.51,10.449-23.51,23.51  c0,13.061,10.449,23.51,23.51,23.51c13.061,0,23.51-10.449,23.51-23.51C294.139,159.347,283.69,148.898,270.629,148.898z"/><path d="M445.649,45.453H15.673C6.792,45.453,0,52.245,0,61.127v339.069c0,8.882,6.792,15.673,15.673,15.673  h429.976c8.882,0,15.673-6.792,15.673-15.673V61.127C461.322,52.245,454.531,45.453,445.649,45.453z M429.975,76.8v133.224  L265.927,307.2l-111.282-99.788c-5.224-4.702-13.584-5.224-19.331-1.045L31.347,277.42V76.8H429.975z M31.347,315.559l111.804-76.8  L305.11,384.522H31.347V315.559z M351.608,384.522l-61.127-55.38l139.494-82.547v137.927H351.608z"/></svg>